<svg xmlns="http://www.w3.org/2000/svg" width="11.69" height="12.57" viewBox="0 0 11.69 12.57"><title>Artboard 1</title><path d="M5.91,11.45H5.2a.61.61,0,0,1-.62-.61v0a.61.61,0,0,1,.62-.61h.71a.62.62,0,0,1,.59.45h1.7a2,2,0,0,0,2-2V7.9H10.1v.42a.58.58,0,0,1-.58.58H9a.17.17,0,0,1-.16-.11h-.2a.43.43,0,0,1-.45-.42V5.67a.43.43,0,0,1,.45-.42h.2A.17.17,0,0,1,9,5.13h.51a.55.55,0,0,1,.55.55v.45h.13V5.59A5,5,0,0,0,5.35.46,5,5,0,0,0,.47,5.59v.54H.59V5.68a.55.55,0,0,1,.55-.55h.51a.17.17,0,0,1,.16.11H2a.43.43,0,0,1,.45.42V8.36A.43.43,0,0,1,2,8.78h-.2a.17.17,0,0,1-.16.11H1.17a.58.58,0,0,1-.58-.58V7.9H.3a.17.17,0,0,1-.17-.17V5.59A5.35,5.35,0,0,1,5.35.13a5.35,5.35,0,0,1,5.22,5.46V8.65A2.36,2.36,0,0,1,8.21,11H6.5A.62.62,0,0,1,5.91,11.45Zm-.71-.91a.27.27,0,0,0-.27.27v0a.27.27,0,0,0,.27.27h.71a.27.27,0,0,0,.27-.27v0a.27.27,0,0,0-.27-.27Zm4-2h.29a.24.24,0,0,0,.24-.24V5.68a.21.21,0,0,0-.21-.21H9.23ZM1.14,5.47a.21.21,0,0,0-.21.21V8.32a.24.24,0,0,0,.24.24h.31V5.47Zm7.53.11a.1.1,0,0,0-.11.08V8.36a.1.1,0,0,0,.11.08h.21V5.58ZM1.83,8.44H2a.1.1,0,0,0,.11-.08V5.67A.1.1,0,0,0,2,5.58H1.83Zm8.27-.88h.13V6.46H10.1Zm-9.63,0H.59V6.46H.47Z" style="stroke:#000;stroke-miterlimit:10;stroke-width:0.25px"/></svg>