<svg xmlns="http://www.w3.org/2000/svg" width="1286" height="284" viewBox="0 0 1286 284"><title>logo</title><path d="M567.94,276.48h-37a15.79,15.79,0,0,1-10.15-3.12,19.35,19.35,0,0,1-5.87-7.74l-19.22-52.51H389l-19.22,52.51a17.06,17.06,0,0,1-5.52,7.48,15.4,15.4,0,0,1-10.15,3.38H316.78L418.06,19.1h48.77ZM483.39,179.3,452.06,93.68q-2.32-5.69-4.81-13.53t-5-16.91q-2.32,9.08-4.81,17T432.66,94L401.51,179.3Z" style="fill:#0d9b80"/><path d="M581.28,252.28a27.36,27.36,0,0,1,2-10.5,25.74,25.74,0,0,1,5.61-8.54,27.26,27.26,0,0,1,19.22-7.83,26.2,26.2,0,0,1,10.59,2.14,28.37,28.37,0,0,1,8.54,5.7,26.74,26.74,0,0,1,0,38.09A27.11,27.11,0,0,1,608.16,279a27.87,27.87,0,0,1-10.68-2,25.35,25.35,0,0,1-14.15-14.06A27.15,27.15,0,0,1,581.28,252.28Z" style="fill:#0d9b80"/><path d="M939.42,252.28a27.36,27.36,0,0,1,2-10.5,25.74,25.74,0,0,1,5.61-8.54,27.26,27.26,0,0,1,19.22-7.83,26.2,26.2,0,0,1,10.59,2.14,28.39,28.39,0,0,1,8.54,5.7,26.74,26.74,0,0,1,0,38.09A27.11,27.11,0,0,1,966.3,279a27.87,27.87,0,0,1-10.68-2,25.35,25.35,0,0,1-14.15-14.06A27.15,27.15,0,0,1,939.42,252.28Z" style="fill:#0d9b80"/><path d="M1174.38,65.91a16.51,16.51,0,0,1-4.54,5.43,10.09,10.09,0,0,1-6,1.69,15.35,15.35,0,0,1-8.1-2.76q-4.36-2.76-10.41-6.14A86.16,86.16,0,0,0,1131.21,58a59.51,59.51,0,0,0-19.13-2.76,57.11,57.11,0,0,0-17.44,2.4,36.64,36.64,0,0,0-12.55,6.68,26.66,26.66,0,0,0-7.56,10.23A33.58,33.58,0,0,0,1072,87.63q0,9.08,5.07,15.13a42.32,42.32,0,0,0,13.44,10.32,124.52,124.52,0,0,0,19,7.65q10.68,3.38,21.89,7.21a206.7,206.7,0,0,1,21.89,8.9,75.61,75.61,0,0,1,19,12.82,58.1,58.1,0,0,1,13.44,19q5.07,11.21,5.07,27.23a88.74,88.74,0,0,1-6,32.66A75.37,75.37,0,0,1,1167.53,255a82.12,82.12,0,0,1-28,17.8q-16.55,6.5-37.91,6.5a122.27,122.27,0,0,1-24.21-2.4,127.37,127.37,0,0,1-22.87-6.85,122.22,122.22,0,0,1-20.56-10.68,99,99,0,0,1-17.09-13.88l14.06-23a15,15,0,0,1,4.63-4.18,11.67,11.67,0,0,1,6.05-1.69q4.45,0,9.61,3.65t12.28,8.1a96.39,96.39,0,0,0,16.64,8.1q9.52,3.65,22.87,3.65,20.47,0,31.68-9.7t11.21-27.86q0-10.15-5.07-16.55a41,41,0,0,0-13.44-10.77,100.54,100.54,0,0,0-19-7.39q-10.68-3-21.72-6.59a186.79,186.79,0,0,1-21.72-8.54,70.28,70.28,0,0,1-19-13,59.1,59.1,0,0,1-13.44-20q-5.07-12-5.07-29.64A71.22,71.22,0,0,1,1049.24,39a79.85,79.85,0,0,1,26.34-16.55q15.66-6.23,36-6.23a120.11,120.11,0,0,1,42,7.12A94.86,94.86,0,0,1,1186.3,43.3Z" style="fill:#0d9b80"/><path d="M1219.23,252.28a27.35,27.35,0,0,1,2-10.5,25.74,25.74,0,0,1,5.61-8.54,27.26,27.26,0,0,1,19.22-7.83,26.21,26.21,0,0,1,10.59,2.14,28.39,28.39,0,0,1,8.54,5.7,26.74,26.74,0,0,1,0,38.09,27.11,27.11,0,0,1-19.14,7.65,27.87,27.87,0,0,1-10.68-2,25.35,25.35,0,0,1-14.15-14.06A27.14,27.14,0,0,1,1219.23,252.28Z" style="fill:#0d9b80"/><path d="M796,11a140.79,140.79,0,0,0-49.28,272.67l28.17-75.81a59.92,59.92,0,1,1,42.23,0l28.17,75.81A140.79,140.79,0,0,0,796,11Z" style="fill:#0d9b80"/><polygon points="298.02 103.88 297.75 104.21 297.48 104.21 297.75 103.88 298.02 103.88" style="fill:#73f9ef"/><polygon points="240.08 103.88 297.75 103.88 297.48 104.21 239.91 104.21 240.08 103.88" style="fill:#73f9ef"/><polygon points="297.75 103.88 240.08 103.88 196.8 16.02 196.8 16 226.24 16 298.02 103.56 297.75 103.88" style="fill:#15ccad"/><polygon points="196.8 16.02 240.08 103.88 68.22 103.88 111.49 16.02 196.8 16.02" style="fill:#3ce5d0"/><polygon points="297.48 104.21 297.75 104.21 154.15 279 239.91 104.21 297.48 104.21" style="fill:#0d9b80"/><polygon points="68.22 103.88 240.08 103.88 239.91 104.21 68.38 104.21 68.22 103.88" style="fill:#73f9ef"/><polygon points="239.91 104.21 154.15 279 68.38 104.21 239.91 104.21" style="fill:#15ccad"/><polygon points="82.7 16 196.8 16 196.8 16.02 111.49 16.02 68.22 103.88 11.2 103.88 10.93 103.56 82.7 16" style="fill:#80fff6"/><polygon points="68.38 104.21 11.46 104.21 11.2 103.88 68.22 103.88 68.38 104.21" style="fill:#73f9ef"/><polygon points="68.38 104.21 154.15 279 11.2 104.21 11.46 104.21 68.38 104.21" style="fill:#3ce5d0"/><polygon points="11.2 103.88 11.46 104.21 11.2 104.21 10.93 103.88 11.2 103.88" style="fill:#73f9ef"/></svg>