<?xml version="1.0" encoding="utf-8"?>
<!-- Generator: Adobe Illustrator 21.0.0, SVG Export Plug-In . SVG Version: 6.00 Build 0)  -->
<svg version="1.1" id="Layer_1" xmlns="http://www.w3.org/2000/svg" xmlns:xlink="http://www.w3.org/1999/xlink" x="0px" y="0px"
	 viewBox="0 0 1286 284" style="enable-background:new 0 0 1286 284;" xml:space="preserve">
<style type="text/css">
	.st0{fill:#087DAB;stroke:#000000;stroke-miterlimit:10;}
	.st1{fill:#0D9B80;}
	.st2{fill:#73F9EF;}
	.st3{fill:#15CCAD;}
	.st4{fill:#3CE5D0;}
	.st5{fill:#80FFF6;}
</style>
<path class="st0" d="M734.8,615.6"/>
<g>
	<path class="st1" d="M567.9,276.5h-37c-4.2,0-7.5-1-10.1-3.1c-2.6-2.1-4.6-4.7-5.9-7.7l-19.2-52.5H389l-19.2,52.5
		c-1,2.7-2.8,5.2-5.5,7.5c-2.7,2.3-6.1,3.4-10.1,3.4h-37.4L418.1,19.1h48.8L567.9,276.5z M483.4,179.3l-31.3-85.6
		c-1.5-3.8-3.1-8.3-4.8-13.5c-1.7-5.2-3.3-10.9-5-16.9c-1.5,6.1-3.1,11.7-4.8,17c-1.7,5.3-3.3,9.9-4.8,13.8l-31.1,85.3H483.4z"/>
	<path class="st1" d="M581.3,252.3c0-3.7,0.7-7.2,2-10.5c1.4-3.3,3.2-6.2,5.6-8.5c2.4-2.4,5.2-4.3,8.5-5.7c3.3-1.4,6.9-2.1,10.7-2.1
		c3.8,0,7.3,0.7,10.6,2.1c3.3,1.4,6.1,3.3,8.5,5.7c2.4,2.4,4.4,5.2,5.8,8.5c1.4,3.3,2.1,6.8,2.1,10.5c0,3.8-0.7,7.3-2.1,10.6
		c-1.4,3.3-3.4,6.1-5.8,8.5c-2.4,2.4-5.3,4.2-8.5,5.6c-3.3,1.4-6.8,2-10.6,2c-3.8,0-7.4-0.7-10.7-2c-3.3-1.4-6.2-3.2-8.5-5.6
		c-2.4-2.4-4.2-5.2-5.6-8.5C582,259.6,581.3,256.1,581.3,252.3z"/>
	<path class="st1" d="M939.4,252.3c0-3.7,0.7-7.2,2-10.5c1.4-3.3,3.2-6.2,5.6-8.5c2.4-2.4,5.2-4.3,8.5-5.7c3.3-1.4,6.9-2.1,10.7-2.1
		c3.8,0,7.3,0.7,10.6,2.1c3.3,1.4,6.1,3.3,8.5,5.7c2.4,2.4,4.4,5.2,5.8,8.5c1.4,3.3,2.1,6.8,2.1,10.5c0,3.8-0.7,7.3-2.1,10.6
		c-1.4,3.3-3.4,6.1-5.8,8.5c-2.4,2.4-5.3,4.2-8.5,5.6c-3.3,1.4-6.8,2-10.6,2c-3.8,0-7.4-0.7-10.7-2c-3.3-1.4-6.2-3.2-8.5-5.6
		c-2.4-2.4-4.2-5.2-5.6-8.5C940.1,259.6,939.4,256.1,939.4,252.3z"/>
	<path class="st1" d="M1174.4,65.9c-1.4,2.5-2.9,4.3-4.5,5.4c-1.6,1.1-3.6,1.7-6,1.7c-2.5,0-5.2-0.9-8.1-2.8
		c-2.9-1.8-6.4-3.9-10.4-6.1c-4-2.3-8.8-4.3-14.2-6.1c-5.4-1.8-11.8-2.8-19.1-2.8c-6.6,0-12.5,0.8-17.4,2.4c-5,1.6-9.2,3.8-12.5,6.7
		c-3.4,2.8-5.9,6.3-7.6,10.2c-1.7,4-2.5,8.3-2.5,13.1c0,6.1,1.7,11.1,5.1,15.1c3.4,4,7.9,7.5,13.4,10.3c5.6,2.8,11.9,5.4,19,7.7
		c7.1,2.3,14.4,4.7,21.9,7.2c7.5,2.6,14.8,5.5,21.9,8.9c7.1,3.4,13.5,7.7,19,12.8c5.6,5.2,10.1,11.5,13.4,19s5.1,16.6,5.1,27.2
		c0,11.6-2,22.5-6,32.7c-4,10.1-9.8,19-17.4,26.5c-7.7,7.5-17,13.5-28,17.8c-11,4.3-23.7,6.5-37.9,6.5c-8.2,0-16.3-0.8-24.2-2.4
		c-8-1.6-15.6-3.9-22.9-6.9c-7.3-3-14.2-6.5-20.6-10.7c-6.4-4.2-12.1-8.8-17.1-13.9l14.1-23c1.2-1.7,2.7-3.1,4.6-4.2
		c1.9-1.1,3.9-1.7,6.1-1.7c3,0,6.2,1.2,9.6,3.6c3.4,2.4,7.5,5.1,12.3,8.1c4.7,3,10.3,5.7,16.6,8.1c6.3,2.4,14,3.6,22.9,3.6
		c13.6,0,24.2-3.2,31.7-9.7c7.5-6.5,11.2-15.8,11.2-27.9c0-6.8-1.7-12.3-5.1-16.6s-7.9-7.9-13.4-10.8c-5.6-2.9-11.9-5.4-19-7.4
		c-7.1-2-14.4-4.2-21.7-6.6c-7.4-2.4-14.6-5.2-21.7-8.5c-7.1-3.3-13.5-7.7-19-13c-5.6-5.3-10.1-12-13.4-20s-5.1-17.9-5.1-29.6
		c0-9.4,1.9-18.5,5.6-27.4c3.7-8.9,9.2-16.8,16.3-23.7c7.1-6.9,15.9-12.4,26.3-16.6c10.4-4.2,22.4-6.2,36-6.2
		c15.2,0,29.2,2.4,42,7.1c12.8,4.7,23.7,11.4,32.8,19.9L1174.4,65.9z"/>
	<path class="st1" d="M1219.2,252.3c0-3.7,0.7-7.2,2-10.5c1.4-3.3,3.2-6.2,5.6-8.5c2.4-2.4,5.2-4.3,8.5-5.7
		c3.3-1.4,6.9-2.1,10.7-2.1c3.8,0,7.3,0.7,10.6,2.1c3.3,1.4,6.1,3.3,8.5,5.7c2.4,2.4,4.4,5.2,5.8,8.5c1.4,3.3,2.1,6.8,2.1,10.5
		c0,3.8-0.7,7.3-2.1,10.6c-1.4,3.3-3.4,6.1-5.8,8.5c-2.4,2.4-5.3,4.2-8.5,5.6c-3.3,1.4-6.8,2-10.6,2c-3.8,0-7.4-0.7-10.7-2
		c-3.3-1.4-6.2-3.2-8.5-5.6c-2.4-2.4-4.2-5.2-5.6-8.5C1219.9,259.6,1219.2,256.1,1219.2,252.3z"/>
</g>
<path class="st1" d="M796,11c-77.7,0-140.8,63-140.8,140.8c0,60.4,38.1,111.9,91.5,131.9l28.2-75.8c-22.7-8.5-38.8-30.4-38.8-56.1
	c0-33.1,26.8-59.9,59.9-59.9s59.9,26.8,59.9,59.9c0,25.7-16.1,47.5-38.8,56.1l28.2,75.8c53.4-20,91.5-71.5,91.5-131.9
	C936.8,74,873.7,11,796,11z"/>
<g id="XMLID_1_">
	<g>
		<polygon class="st2" points="298,103.9 297.7,104.2 297.5,104.2 297.7,103.9 		"/>
		<polygon class="st2" points="240.1,103.9 297.7,103.9 297.5,104.2 239.9,104.2 		"/>
		<polygon class="st3" points="297.7,103.9 240.1,103.9 196.8,16 196.8,16 226.2,16 298,103.6 		"/>
		<polygon class="st4" points="196.8,16 240.1,103.9 68.2,103.9 111.5,16 		"/>
		<polygon class="st1" points="297.5,104.2 297.7,104.2 154.1,279 239.9,104.2 		"/>
		<polygon class="st2" points="68.2,103.9 240.1,103.9 239.9,104.2 68.4,104.2 		"/>
		<polygon class="st3" points="239.9,104.2 154.1,279 68.4,104.2 		"/>
		<polygon class="st5" points="82.7,16 196.8,16 196.8,16 111.5,16 68.2,103.9 11.2,103.9 10.9,103.6 		"/>
		<polygon class="st2" points="68.4,104.2 11.5,104.2 11.2,103.9 68.2,103.9 		"/>
		<polygon class="st4" points="68.4,104.2 154.1,279 11.2,104.2 11.5,104.2 		"/>
		<polygon class="st2" points="11.2,103.9 11.5,104.2 11.2,104.2 10.9,103.9 		"/>
	</g>
	<g>
	</g>
</g>
</svg>
