<?xml version="1.0" encoding="iso-8859-1"?>
<!-- Generator: Adobe Illustrator 19.0.0, SVG Export Plug-In . SVG Version: 6.00 Build 0)  -->
<svg version="1.1" id="Layer_1" xmlns="http://www.w3.org/2000/svg" xmlns:xlink="http://www.w3.org/1999/xlink" x="0px" y="0px"
	 viewBox="0 0 512 512" style="enable-background:new 0 0 512 512;" xml:space="preserve">
<g>
	<g>
		<path d="M383.781,0L0,383.781L128.227,512L512,128.219L383.781,0z M165.938,444.125c-4.164-4.172-10.922-4.172-15.086,0
			c-4.164,4.156-4.164,10.906,0,15.078l-7.539,7.547c-4.164-4.172-10.922-4.172-15.086,0c-4.164,4.156-4.164,10.906,0,15.078
			l-7.539-7.547l52.781-52.781c-4.156,4.172-4.148,10.906,0.008,15.078L165.938,444.125z M188.563,421.5
			c-4.156-4.172-10.906-4.172-15.07-0.031l22.609-22.594c-4.156,4.156-4.156,10.906,0.008,15.063L188.563,421.5z M211.195,398.859
			c-4.164-4.172-10.914-4.172-15.086,0l22.588-22.584c-4.125,4.175-4.114,10.894,0.037,15.037L211.195,398.859z M233.82,376.234
			c-4.15-4.158-10.876-4.169-15.044-0.038l22.575-22.571c-4.156,4.156-4.148,10.906,0.008,15.063L233.82,376.234z M241.36,293.267
			c-4.164-4.172-10.914-4.172-15.078,0c-4.172,4.172-4.172,10.922,0,15.078l15.078,15.094L105.602,459.203l-22.633-22.625
			c4.164-4.172,4.164-10.922,0-15.078c-4.164-4.172-10.914-4.172-15.086,0c4.172-4.172,4.172-10.938,0-15.094
			c-4.164-4.156-10.914-4.156-15.078,0l-22.633-22.625L383.781,30.172l22.688,22.68c-3.313,4.188-3.031,10.281,0.828,14.141
			c3.859,3.867,9.953,4.141,14.141,0.836l0.125,0.109c-3.313,4.188-3.047,10.281,0.813,14.141c3.875,3.867,9.969,4.141,14.156,0.836
			l22.672,22.68l-202.758,202.75l-15.078-15.078H241.36z M256.445,353.609c-4.156-4.172-10.906-4.172-15.07-0.016l15.07-15.063
			l7.547,7.531L256.445,353.609z M279.078,330.969l-7.547-7.531l16.503-16.501c-4.126,4.174-4.118,10.901,0.028,15.063
			L279.078,330.969z M303.156,306.906c-4.177-4.146-10.903-4.154-15.062-0.029l22.536-22.533c-4.096,4.161-4.079,10.88,0.057,15.031
			L303.156,306.906z M333.312,276.751l-7.531,7.53c-4.152-4.136-10.87-4.152-15.031-0.057l22.562-22.559
			C329.156,265.829,329.156,272.579,333.312,276.751z M371.031,239.031c-4.172-4.172-10.922-4.164-15.094,0
			c-4.156,4.164-4.156,10.914,0,15.086l-7.531,7.539c-4.172-4.164-10.906-4.164-15.094-0.008l45.25-45.25
			c-4.156,4.172-4.156,10.922,0,15.086L371.031,239.031z M393.656,216.399c-4.156-4.164-10.922-4.164-15.094,0l22.606-22.604
			c-4.136,4.166-4.13,10.908,0.019,15.065L393.656,216.399z M466.718,143.337l-5.187,5.179c-4.156-4.164-10.906-4.164-15.078,0
			c-4.172,4.172-4.172,10.922,0,15.086l-7.547,7.547c-4.156-4.164-10.906-4.164-15.078,0s-4.172,10.914,0,15.086l-7.547,7.539
			c-4.15-4.157-10.884-4.163-15.074-0.018l65.511-65.505C462.562,132.423,462.562,139.173,466.718,143.337z M466.719,128.242
			l7.563-7.563l7.563,7.539l-0.031,0.031C477.641,124.086,470.891,124.086,466.719,128.242z"/>
	</g>
</g>
<g>
	<g>
		<path d="M105.602,338.531l-45.258,45.25l45.258,45.25l45.25-45.25L105.602,338.531z M90.516,383.782l15.086-15.094l15.078,15.094
			l-15.078,15.078L90.516,383.782z"/>
	</g>
</g>
<g>
	<g>
		<path d="M165.937,278.188l-45.25,45.25l45.25,45.25l45.258-45.25L165.937,278.188z M150.852,323.438l15.086-15.094l15.086,15.094
			l-15.086,15.094L150.852,323.438z"/>
	</g>
</g>
<g>
	<g>
		<path d="M256.445,187.672l-45.25,45.258l45.25,45.258l45.258-45.258L256.445,187.672z M241.367,232.93l15.078-15.086
			l15.086,15.086l-15.086,15.086L241.367,232.93z"/>
	</g>
</g>
<g>
	<g>
		<path d="M316.781,127.336l-45.25,45.25l45.25,45.258l45.266-45.258L316.781,127.336z M301.703,172.586l15.078-15.086
			l15.094,15.086l-15.094,15.086L301.703,172.586z"/>
	</g>
</g>
<g>
	<g>
		<path d="M377.125,66.992l-45.25,45.258l45.25,45.25l45.25-45.25L377.125,66.992z M362.031,112.25l15.094-15.086l15.094,15.086
			l-15.094,15.086L362.031,112.25z"/>
	</g>
</g>
<g>
</g>
<g>
</g>
<g>
</g>
<g>
</g>
<g>
</g>
<g>
</g>
<g>
</g>
<g>
</g>
<g>
</g>
<g>
</g>
<g>
</g>
<g>
</g>
<g>
</g>
<g>
</g>
<g>
</g>
</svg>
